<svg width="146" height="24" viewBox="0 0 146 24" fill="none" xmlns="http://www.w3.org/2000/svg">
<path d="M35.178 20.667C39.3505 20.667 42.3613 18.5425 42.7881 14.4102H39.0186C38.7104 16.558 37.2405 17.6086 35.1306 17.6086C32.3331 17.6086 30.721 15.6008 30.721 12.1456V11.9588C30.721 8.50357 32.4279 6.44909 35.1068 6.44909C37.2405 6.44909 38.3785 7.52302 38.663 9.53081H42.5984C42.1954 5.42186 39.1608 3.46077 35.0831 3.46077C30.2705 3.46077 26.667 6.91602 26.667 11.9822V12.1689C26.667 17.3051 29.6304 20.667 35.178 20.667Z" fill="#141923"/>
<path d="M43.9824 20.4102H47.42V14.2935C47.42 11.9588 48.8899 11.1417 51.4266 11.165V8.0133C49.4115 8.03664 48.2024 8.90046 47.42 10.5347V8.20007H43.9824V20.4102Z" fill="#141923"/>
<path d="M58.2484 18.0989C56.3043 18.0989 55.2138 16.6981 55.2138 14.3635V14.1767C55.2138 11.8421 56.3518 10.488 58.2484 10.488C60.1687 10.488 61.2829 11.8888 61.2829 14.2234V14.3868C61.2829 16.6981 60.1687 18.0989 58.2484 18.0989ZM58.2246 20.667C61.9467 20.667 64.7679 18.2156 64.7679 14.3635V14.1767C64.7679 10.3713 61.9704 7.91991 58.2484 7.91991C54.5263 7.91991 51.7051 10.418 51.7051 14.2468V14.4335C51.7051 18.239 54.5263 20.667 58.2246 20.667Z" fill="#141923"/>
<path d="M70.5891 20.667C73.8608 20.667 75.8048 19.2896 75.8048 16.6514C75.8048 14.0366 74.0978 13.2662 70.9922 12.8226C69.1904 12.5658 68.5977 12.2623 68.5977 11.4919C68.5977 10.7448 69.2378 10.2312 70.3521 10.2312C71.5374 10.2312 72.1064 10.6981 72.2961 11.702H75.4492C75.141 8.90046 73.0784 7.91991 70.3283 7.91991C67.7917 7.91991 65.4209 9.18061 65.4209 11.7254C65.4209 14.1067 66.7011 15.0405 69.9964 15.5308C71.7745 15.7876 72.5094 16.1378 72.5094 16.9783C72.5094 17.8187 71.893 18.309 70.5654 18.309C69.0719 18.309 68.5266 17.6787 68.3843 16.5814H65.1838C65.3024 19.2195 67.2464 20.667 70.5891 20.667Z" fill="#141923"/>
<path d="M81.5014 20.667C84.773 20.667 86.717 19.2896 86.717 16.6514C86.717 14.0366 85.0101 13.2662 81.9044 12.8226C80.1026 12.5658 79.5099 12.2623 79.5099 11.4919C79.5099 10.7448 80.15 10.2312 81.2643 10.2312C82.4496 10.2312 83.0186 10.6981 83.2083 11.702H86.3614C86.0532 8.90046 83.9906 7.91991 81.2406 7.91991C78.7039 7.91991 76.3331 9.18061 76.3331 11.7254C76.3331 14.1067 77.6133 15.0405 80.9087 15.5308C82.6867 15.7876 83.4217 16.1378 83.4217 16.9783C83.4217 17.8187 82.8053 18.309 81.4776 18.309C79.9841 18.309 79.4388 17.6787 79.2966 16.5814H76.0961C76.2146 19.2195 78.1586 20.667 81.5014 20.667Z" fill="#141923"/>
<path d="M95.8512 20.667C100.024 20.667 103.035 18.5425 103.461 14.4102H99.6918C99.3836 16.558 97.9137 17.6086 95.8037 17.6086C93.0063 17.6086 91.3942 15.6008 91.3942 12.1456V11.9588C91.3942 8.50357 93.1011 6.44909 95.78 6.44909C97.9137 6.44909 99.0517 7.52302 99.3362 9.53081H103.272C102.869 5.42186 99.834 3.46077 95.7563 3.46077C90.9437 3.46077 87.3402 6.91602 87.3402 11.9822V12.1689C87.3402 17.3051 90.3036 20.667 95.8512 20.667Z" fill="#141923"/>
<path d="M104.75 20.4102H108.164V2.66699H104.75V20.4102Z" fill="#141923"/>
<path d="M113.655 20.667C115.599 20.667 116.69 19.9199 117.401 18.9394V20.4102H120.744V12.4491C120.744 9.13392 118.586 7.91991 115.552 7.91991C112.517 7.91991 110.194 9.20396 109.98 12.0989H113.228C113.371 11.0483 113.987 10.3713 115.338 10.3713C116.903 10.3713 117.354 11.165 117.354 12.6125V13.1028H115.955C112.162 13.1028 109.506 14.1767 109.506 17.025C109.506 19.5931 111.403 20.667 113.655 20.667ZM114.675 18.309C113.418 18.309 112.873 17.7254 112.873 16.8382C112.873 15.5308 114.034 15.1106 116.026 15.1106H117.354V16.1378C117.354 17.4919 116.192 18.309 114.675 18.309Z" fill="#141923"/>
<path d="M125.702 20.4102H129.566L134.071 8.20007H130.751L127.812 16.9316L124.848 8.20007H121.174L125.702 20.4102Z" fill="#141923"/>
<path d="M140.05 20.667C143.44 20.667 145.574 19.1962 145.977 16.558H142.729C142.515 17.5853 141.733 18.2623 140.145 18.2623C138.272 18.2623 137.157 17.095 137.063 15.0639H146V14.13C146 9.76427 143.155 7.91991 139.955 7.91991C136.351 7.91991 133.578 10.418 133.578 14.2701V14.4569C133.578 18.3557 136.304 20.667 140.05 20.667ZM137.11 12.9861C137.371 11.2584 138.414 10.2545 139.955 10.2545C141.591 10.2545 142.539 11.1417 142.658 12.9861H137.11Z" fill="#141923"/>
<path fill-rule="evenodd" clip-rule="evenodd" d="M0 16.0003L8 24L16 16.0003H0ZM16 0V7.99965L8 15.9995V7.99965H0L8 0H16Z" fill="#EF6C56"/>
</svg>
